<svg width="627" height="389" viewBox="0 0 627 389" fill="none" xmlns="http://www.w3.org/2000/svg">
<g clip-path="url(#clip0_102_14)">
<path d="M178.937 162.931L146.249 116.22V162.931H112.426V55.4321H146.249V100.889L179.834 55.7308H219.892L178.718 106.444L220.529 162.931H178.937Z" fill="white"/>
<path d="M596.172 304.319C607.118 304.319 615.992 295.548 615.992 284.727C615.992 273.907 607.118 265.134 596.172 265.134C585.227 265.134 576.352 273.907 576.352 284.727C576.352 295.548 585.227 304.319 596.172 304.319ZM251.086 39.1848C262.032 39.1848 270.906 30.413 270.906 19.5924C270.906 8.77182 262.032 0 251.086 0C240.14 0 231.266 8.77182 231.266 19.5924C231.266 30.413 240.14 39.1848 251.086 39.1848Z" fill="#00FF84"/>
<path d="M267.998 55.4321H234.174V162.931H267.998V55.4321ZM233.537 248.489C233.537 216.452 253.337 192.002 284.491 192.002C300.068 192.002 312.299 199.349 318.095 210.24V194.889H351.919V302.089H318.095V286.957C312.299 297.629 298.953 304.976 284.053 304.976C252.022 304.996 233.537 280.745 233.537 248.489ZM319.43 248.489C319.43 233.137 310.745 220.454 293.833 220.454C278.037 220.454 268.237 232.241 268.237 248.489C268.237 264.716 278.017 276.743 293.833 276.743C310.765 276.743 319.43 264.059 319.43 248.489ZM371.838 194.889H405.881V217.348C409.666 201.34 422.354 193.116 435.481 193.116C439.485 193.116 441.716 193.335 444.385 194.012L444.206 225.571C440.202 225.113 438.37 224.914 434.147 224.914C415.681 224.914 405.881 236.921 405.881 260.714V302.089H371.838V194.889ZM451.277 248.489C451.277 213.346 474.205 192.002 509.124 192.002C542.509 192.002 565.197 212.689 565.197 242.934C565.197 248.489 564.978 251.834 564.301 257.827H485.081C485.738 271.844 495.101 279.411 510.219 279.411C520.677 279.411 527.35 276.523 530.239 269.853H563.624C560.297 290.979 538.704 304.996 510.219 304.996C473.747 304.996 451.277 284.309 451.277 248.489ZM531.613 236.702C531.394 222.465 523.386 214.899 508.925 214.899C494.244 214.899 485.34 223.58 485.121 236.702H531.613ZM321.701 131.014V55.4321H287.658V162.931H370.265V131.014H321.701ZM422.753 131.014V55.4321H388.71V162.931H471.317V131.014H422.753ZM186.586 194.849V233.456H145.791V194.849H112.426V302.368H145.791V264.278H186.586V302.368H219.972V194.849H186.586ZM70.4355 238.434L49.6395 232.68C42.6079 230.589 40.1777 227.503 40.1777 223.142C40.1777 218.383 43.9226 215.576 48.7631 215.019C55.7947 214.202 61.2327 217.249 61.2327 224.835V225.332H97.0082V224.835H96.9883C96.9883 203.43 78.8814 191.623 48.6435 191.623C21.0749 191.623 2.8485 205.003 2.8485 225.293C2.8485 241.56 12.629 252.491 29.7399 256.712L51.1933 262.088C57.5675 264.099 60.1371 267.225 60.1172 272.123C60.0973 277.479 54.719 280.506 49.2212 280.765C41.2534 281.123 35.4568 276.802 35.0186 269.933H0C0.517908 290.441 20.5968 304.857 50.6554 304.857C79.1005 304.857 97.566 291.716 97.566 269.415C97.5461 253.148 87.3273 242.894 70.4355 238.434ZM70.4355 99.2761L49.6395 93.5218C42.6079 91.4312 40.1777 88.345 40.1777 83.9845C40.1777 79.2257 43.9226 76.4183 48.7631 75.8608C55.7947 75.0444 61.2327 78.0908 61.2327 85.6769V86.1747H97.0082V85.6769H96.9883C96.9883 64.2726 78.8814 52.4654 48.6435 52.4654C21.0749 52.4654 2.8485 65.8456 2.8485 86.1348C2.8485 102.402 12.629 113.333 29.7399 117.554L51.1933 122.93C57.5675 124.941 60.1371 128.067 60.1172 132.965C60.0973 138.321 54.719 141.348 49.2212 141.607C41.2534 141.965 35.4568 137.645 35.0186 130.775H0C0.517908 151.284 20.5968 165.699 50.6554 165.699C79.1005 165.699 97.566 152.558 97.566 130.258C97.5461 113.99 87.3273 103.736 70.4355 99.2761Z" fill="white"/>
</g>
<path d="M546.676 109.306C549.391 107.809 550.454 104.531 549.051 101.984C547.647 99.4377 544.307 98.5867 541.592 100.084C538.876 101.581 537.813 104.859 539.217 107.405C540.621 109.952 543.96 110.803 546.676 109.306Z" fill="#00FF84"/>
<path d="M550.924 58.8636L516.506 77.8376L511.421 68.6152C510.073 66.1692 509.816 63.2523 510.707 60.5061C511.598 57.7599 513.563 55.4094 516.171 53.9716C518.779 52.5339 521.816 52.1266 524.614 52.8395C527.412 53.5524 529.741 55.327 531.089 57.7729C531.763 58.9959 532.928 59.8832 534.327 60.2396C535.726 60.5961 537.244 60.3924 538.548 59.6736C539.852 58.9547 540.835 57.7794 541.28 56.4063C541.726 55.0332 541.597 53.5748 540.923 52.3518C538.226 47.4599 533.568 43.9107 527.973 42.4849C522.377 41.0592 516.303 41.8737 511.087 44.7492C505.871 47.6248 501.94 52.3258 500.158 57.8182C498.377 63.3106 498.891 69.1444 501.588 74.0363L506.672 83.2587L501.755 85.9693C497.843 88.1259 494.894 91.6517 493.558 95.771C492.222 99.8903 492.608 104.266 494.63 107.935L514.966 144.824C516.989 148.493 520.483 151.155 524.679 152.224C528.876 153.294 533.431 152.683 537.343 150.526L586.512 123.421C590.425 121.264 593.373 117.738 594.709 113.619C596.045 109.5 595.66 105.124 593.637 101.455L573.301 64.5656C571.278 60.8967 567.784 58.2348 563.588 57.1654C559.392 56.0961 554.836 56.707 550.924 58.8636ZM551.76 118.529C548.842 120.137 545.543 120.898 542.279 120.715C539.016 120.532 535.934 119.414 533.424 117.502C530.914 115.589 529.089 112.969 528.178 109.972C527.268 106.974 527.314 103.735 528.311 100.663C529.307 97.5911 531.209 94.8247 533.776 92.7135C536.343 90.6024 539.46 89.2413 542.733 88.8025C546.005 88.3636 549.287 88.8667 552.162 90.2481C555.037 91.6295 557.376 93.8272 558.884 96.5632C560.907 100.232 561.293 104.608 559.956 108.727C558.62 112.846 555.672 116.372 551.76 118.529Z" fill="#00FF84"/>
<path d="M336.312 337.4V359.96C336.312 362.072 336.648 363.912 337.32 365.48C338.024 367.048 338.984 368.344 340.2 369.368C341.448 370.36 342.888 371.112 344.52 371.624C346.152 372.136 347.912 372.392 349.8 372.392C351.688 372.392 353.448 372.136 355.08 371.624C356.744 371.112 358.184 370.36 359.4 369.368C360.648 368.344 361.608 367.048 362.28 365.48C362.984 363.912 363.336 362.072 363.336 359.96V337.4H355.224V359.384C355.224 361.08 354.776 362.456 353.88 363.512C352.984 364.568 351.624 365.096 349.8 365.096C348.008 365.096 346.664 364.568 345.768 363.512C344.872 362.456 344.424 361.08 344.424 359.384V337.4H336.312ZM393.392 337.4V356.312L370.208 335.72V371H377.984V352.088L401.216 372.68V337.4H393.392ZM408.318 337.4V371H429.918V364.04H416.43V337.4H408.318ZM438.896 354.2C438.896 352.216 439.28 350.472 440.048 348.968C440.848 347.432 441.952 346.232 443.36 345.368C444.8 344.504 446.48 344.072 448.4 344.072C450.352 344.072 452.032 344.504 453.44 345.368C454.848 346.232 455.936 347.432 456.704 348.968C457.472 350.472 457.856 352.216 457.856 354.2C457.856 356.184 457.456 357.944 456.656 359.48C455.888 360.984 454.784 362.168 453.344 363.032C451.936 363.896 450.288 364.328 448.4 364.328C446.48 364.328 444.8 363.896 443.36 363.032C441.952 362.168 440.848 360.984 440.048 359.48C439.28 357.944 438.896 356.184 438.896 354.2ZM430.304 354.2C430.304 356.792 430.736 359.176 431.6 361.352C432.496 363.528 433.744 365.416 435.344 367.016C436.976 368.616 438.896 369.864 441.104 370.76C443.312 371.624 445.744 372.056 448.4 372.056C451.024 372.056 453.44 371.624 455.648 370.76C457.856 369.864 459.76 368.616 461.36 367.016C462.992 365.416 464.24 363.528 465.104 361.352C466 359.176 466.448 356.792 466.448 354.2C466.448 351.608 466 349.24 465.104 347.096C464.208 344.952 462.944 343.096 461.312 341.528C459.68 339.96 457.76 338.76 455.552 337.928C453.376 337.064 450.992 336.632 448.4 336.632C445.84 336.632 443.456 337.064 441.248 337.928C439.04 338.76 437.12 339.96 435.488 341.528C433.856 343.096 432.576 344.952 431.648 347.096C430.752 349.24 430.304 351.608 430.304 354.2ZM478.558 354.2C478.558 352.12 479.022 350.344 479.95 348.872C480.878 347.4 482.094 346.28 483.598 345.512C485.134 344.744 486.814 344.36 488.638 344.36C490.238 344.36 491.646 344.568 492.862 344.984C494.078 345.368 495.166 345.912 496.126 346.616C497.086 347.288 497.934 348.008 498.67 348.776V340.04C497.326 338.984 495.854 338.152 494.254 337.544C492.654 336.936 490.622 336.632 488.158 336.632C485.47 336.632 482.99 337.048 480.718 337.88C478.446 338.712 476.494 339.912 474.862 341.48C473.23 343.048 471.966 344.904 471.07 347.048C470.174 349.192 469.726 351.576 469.726 354.2C469.726 356.824 470.174 359.208 471.07 361.352C471.966 363.496 473.23 365.352 474.862 366.92C476.494 368.488 478.446 369.688 480.718 370.52C482.99 371.352 485.47 371.768 488.158 371.768C490.622 371.768 492.654 371.464 494.254 370.856C495.854 370.248 497.326 369.416 498.67 368.36V359.624C497.934 360.392 497.086 361.112 496.126 361.784C495.166 362.456 494.078 363 492.862 363.416C491.646 363.832 490.238 364.04 488.638 364.04C486.814 364.04 485.134 363.656 483.598 362.888C482.094 362.12 480.878 361 479.95 359.528C479.022 358.024 478.558 356.248 478.558 354.2ZM505.302 337.4V371H513.702V337.4H505.302ZM525.126 337.4L511.35 353.384L525.51 371H535.35L520.998 353.144L534.63 337.4H525.126ZM544.241 371H561.185V364.328H544.241V371ZM544.241 344.072H561.185V337.4H544.241V344.072ZM544.241 356.6H560.225V350.072H544.241V356.6ZM538.865 337.4V371H546.641V337.4H538.865ZM567.786 337.4V371H576.138V337.4H567.786ZM579.786 371C583.466 371 586.65 370.312 589.338 368.936C592.026 367.56 594.106 365.624 595.578 363.128C597.05 360.6 597.786 357.624 597.786 354.2C597.786 350.744 597.05 347.768 595.578 345.272C594.106 342.776 592.026 340.84 589.338 339.464C586.65 338.088 583.466 337.4 579.786 337.4H573.162V344.6H579.498C580.778 344.6 582.01 344.76 583.194 345.08C584.41 345.4 585.466 345.928 586.362 346.664C587.29 347.4 588.026 348.392 588.57 349.64C589.114 350.856 589.386 352.376 589.386 354.2C589.386 356.024 589.114 357.56 588.57 358.808C588.026 360.024 587.29 361 586.362 361.736C585.466 362.472 584.41 363 583.194 363.32C582.01 363.64 580.778 363.8 579.498 363.8H573.162V371H579.786Z" fill="white"/>
<defs>
<clipPath id="clip0_102_14">
<rect width="616" height="305" fill="white"/>
</clipPath>
</defs>
</svg>
